<svg xmlns="http://www.w3.org/2000/svg" width="556.3" height="87.5" viewBox="0.8 0 556.3 87.5"><path d="M69.3 38.6c0 17.2-13 35.2-30.4 35.2-14.9 0-23.1-10.3-23.1-23.6 0-17.2 13-35.2 30.4-35.2 14.9 0 23.1 10.3 23.1 23.6m15 .2c0-21.3-13.9-36.4-36.9-36.4-27-.1-46.6 24.4-46.6 47.7 0 21.3 13.9 36.4 36.9 36.4 27 .1 46.6-24.4 46.6-47.7m37.5 17.2c0 10.3-6.8 19.6-15.4 19.6-6.7 0-9.1-3.7-9.1-10.3 0-10.9 6.6-20.2 15.1-20.2 6.2 0 9.4 4.9 9.4 10.9m12.8-1.7c0-11.8-5.6-19.9-17.5-19.9-5.8 0-12.1 4.5-15.8 9.9l9.6-43h-23.1l-2.6 10.7h11.3l-16.5 73.9h12.1l2.4-9.8c1.5 6 7.5 10.7 13.9 10.7 14.9 0 26.2-15.1 26.2-32.5m45.6-7.1c0-2.5-1-5-2.9-6.9-3.4-3.6-9.3-5.9-16.3-5.9-13.6 0-21 7.7-21 15.9 0 8.5 7.7 12.1 14.1 14.8 5.5 2.4 10.7 4.2 10.7 8 0 3.3-4.3 4.7-8.9 4.7-3 0-5.9-.5-8.2-1.5-.7-.3-1.2-.7-1.7-1 .3-.5.7-1.8.7-2.8 0-3.5-2.8-6.4-6.2-6.4-3.6 0-6.4 2.8-6.4 7.2 0 2.7 1.2 5.1 3.3 7.2 3.7 3.8 10.3 6.4 18.4 6.4 13.5 0 21.2-5.9 21.2-16.1 0-8-6.7-11.8-13.1-14.7-5.6-2.5-11.6-4.5-11.6-8.1 0-3.3 4.9-4.6 8.9-4.6 1.9 0 3.9.3 5.5.9.7.2 1.1.5 1.6.7-.6 1.4-.7 1.8-.7 2.8 0 3.5 2.9 6.5 6.3 6.5s6.3-2.8 6.3-7.1m36.4 5.4c0 1-.1 2.2-.4 3.5h-22c2.4-6.9 7.2-11.3 13.3-11.3 5.9 0 9.1 2.9 9.1 7.8m9.9 12.3c1.2-4 1.8-7.7 1.8-11 0-12.6-8.6-19.5-21.1-19.5-14.7 0-26.6 13.5-26.6 30.7 0 14 11.1 22.4 23.1 22.4 9 0 13.3-1.5 18.4-4.1l2.9-11.6c-6.2 3.3-13.6 4.4-18.5 4.4-9.3 0-13.8-5-13.8-10.6v-.8l33.8.1zm57 21.3c16.7-19.1 28.5-30.5 28.5-42.4 0-6.2-3.7-10.3-8.8-10.3-4.4 0-8.2 2.8-8.7 7.1-.5 3.7 1.5 7 6.2 7.6-4.2 7.9-9.9 16.1-18.1 25l-4.6-38.7h-13.1c-6.7-.5-11.6 5-17.3 15.7l3.1-14.8h-16.3l-2.7 10.6h6.1l-9.8 40h12.6l5.6-23c2.5-10.3 8.2-16.9 11.8-18 .5 5.8 4.3 6.4 6.6 6.2 1.9 0 3.1-.8 4.1-1.3l5.6 36.2h9.2v.1zm63.8-29.6c0 10.9-6.4 19.5-14.5 19.5-5.9 0-8.9-4.7-8.9-10.7 0-10.3 6.6-19.7 14.8-19.7 6.5-.1 8.6 4.3 8.6 10.9m9.6 13.1l8.4-34.4h-11.4l-3.4 10.4c-2-5.8-7.3-11.3-13.8-11.3-14.2 0-25.6 15.4-25.6 32.8 0 11.8 6.6 19.6 15.8 19.6 7.6 0 13.6-5.2 17.6-11.4 0 6.9 3.7 11.4 10.1 11.4 5.4 0 11.7-3 15-14.9h-6.3c-2.5 7-3.6 6.6-5.1 6.6-1.7 0-2.3-1.3-2.3-3.4.1-1.2.4-3.2 1-5.4m51.8-34.4h-13.5l4.7-17.5-13.8 5.1-3.4 12.5h-12.4l-2.4 10.6h12.3l-5.3 21.9c-.6 2.5-1 4.8-1 6.8 0 8.5 5.5 12.1 12 12.1 4.8 0 11-1.4 17.7-8l-4-5.8c-4.9 3.3-6.8 4-9.4 4-1.9 0-3.6-1.2-3.6-4.6 0-.9.3-2.8.8-4.6l5.3-21.9h13.5l2.5-10.6zm31.8 17.3c0 1-.1 2.2-.4 3.5h-22c2.4-6.9 7.2-11.3 13.3-11.3 6 0 9.1 2.9 9.1 7.8m10 12.3c1.2-4 1.8-7.7 1.8-11 0-12.6-7.9-19.5-20.4-19.5-14.7 0-27.3 13.5-27.3 30.7 0 14 11.1 22.4 23.1 22.4 9 0 13.3-1.5 18.4-4.1l2.9-11.6c-6.2 3.3-13.6 4.4-18.5 4.4-9.3 0-13.8-5-13.8-10.6v-.8l33.8.1zm48.1 4.8l8.4-34.4h-12.6l-7.2 29.6c-1.8 7.4-4.9 11.3-10.9 11.3-3.8 0-6.1-2.5-6.1-7.2 0-1.4.3-2.9.7-4.5l7.1-29.2h-19.9l-2.7 10.6h7.4l-4.2 17.4c-.8 3.5-1.2 6.8-1.2 9.5 0 8.8 5.8 14 12.2 14 6.3 0 12.3-4.4 16.4-11.2.1 6.8 3.9 11.2 10.2 11.2 5.4 0 11.7-3 15-14.9h-5.7c-2.5 7-4.3 6.7-5.9 6.7-1.7 0-2.1-1.3-2.1-3.4.2-1.3.6-3.3 1.1-5.5m58.5-27c0-5-4-8.3-8.2-8.3-5.8 0-11.7 5-17.4 15.7l3.1-14.8h-21l-2.7 10.6h10.7l-9.8 40h12.6l5.6-23c2.5-10.3 8.2-16.9 11.8-18 .6 2.9 3.5 5.8 7.4 5.8 4.5 0 7.9-3.6 7.9-8"/><path d="M326 26.8h21.6v-2.8h-18.6v-23.5h-3v26.3zm-3.8-26.3h-20.7v26.4h20.9v-2.7h-17.9v-9.2h16v-2.7h-16v-9h17.7v-2.8zm-37.2 22.7l-9.4-22.7h-3.3l11.3 26.5h2.6l11.3-26.6h-3.2l-9.3 22.8zm-16.4-22.7h-3v15.3c0 5.8-3.1 8.7-7.9 8.7-5 0-8.1-3.2-8.1-8.9v-15.1h-3v15.3c0 7.5 4.4 11.5 11 11.5s11-4 11-11.7v-15.1zm-29.9 13.2c0 6-4.3 10.8-10.3 10.8s-10.4-4.9-10.4-10.9 4.3-10.8 10.3-10.8 10.4 4.8 10.4 10.9m3.1-.1c0-7.3-5.4-13.6-13.4-13.6s-13.5 6.4-13.5 13.7c0 7.3 5.4 13.6 13.4 13.6s13.5-6.4 13.5-13.7m-33.6 8l-20.7-21.1h-2.8v26.4h2.9v-21.7l21.1 21.6h2.4v-26.3h-2.9v21.1zm-40.4-21.1h-20.7v26.4h20.9v-2.7h-17.9v-9.2h16v-2.7h-16v-9h17.7v-2.8zm-44.2 26.3h19.5v-2.8h-16.5v-23.5h-3v26.3z" fill="#E3032E"/></svg>