<?xml version="1.0" encoding="utf-8"?>
<!-- Generator: Adobe Illustrator 15.0.1, SVG Export Plug-In . SVG Version: 6.00 Build 0)  -->
<!DOCTYPE svg PUBLIC "-//W3C//DTD SVG 1.1//EN" "http://www.w3.org/Graphics/SVG/1.1/DTD/svg11.dtd">
<svg version="1.1" id="Calque_1" xmlns="http://www.w3.org/2000/svg" xmlns:xlink="http://www.w3.org/1999/xlink" x="0px" y="0px"
	 width="100px" height="100px" viewBox="0 0 100 100" enable-background="new 0 0 100 100" xml:space="preserve">
<linearGradient id="SVGID_1_" gradientUnits="userSpaceOnUse" x1="49.9995" y1="0" x2="49.9995" y2="100.0005">
	<stop  offset="0" style="stop-color:#F5F8F9"/>
	<stop  offset="0.3746" style="stop-color:#F2F5F6"/>
	<stop  offset="0.6679" style="stop-color:#E8EBEE"/>
	<stop  offset="0.9329" style="stop-color:#D7DBE0"/>
	<stop  offset="1" style="stop-color:#D2D6DB"/>
</linearGradient>
<rect fill="url(#SVGID_1_)" width="100" height="100"/>
<path fill="#747B83" d="M67.587,16.347c0.842,3.395,0.927,3.677,0.849,7.162c-0.031,1.343-0.803,7.554-0.593,9.459
	c0.172,1.571,0.563,1.696,1.184,2.991c1.078,2.253,0.719,5.361,0.304,7.633c-0.227,1.243-0.705,3.013-1.434,4.027
	c-0.801,1.119-2.407,1.127-3.117,2.432c-1.022,1.879-0.445,4.517-1.09,6.545c-0.731,2.302-2.598,2.464-2.737,5.474
	c0.914,0.13,1.825,0.261,2.737,0.392c0.915,1.945,2.592,5.859,4.304,7.038c1.433,0.392,2.867,0.782,4.3,1.173
	c5.024,2.059,10.607,4.525,15.642,6.648c4.586,1.934,10.076,2.623,11.732,7.429c0,3.264,0.308,10.975,0.224,15.251H0.015
	c-0.083-4.276,0.224-11.987,0.224-15.251c1.657-4.806,7.146-5.495,11.731-7.429c5.035-2.123,10.619-4.59,15.642-6.648
	c1.433-0.391,2.869-0.781,4.301-1.173c1.712-1.179,3.388-5.093,4.303-7.038l2.036-0.495c-0.462-2.57-2.054-2.771-2.717-4.59
	c-0.259-2.737-0.52-5.475-0.781-8.211c0.013,0.129-1.872-0.343-2.119-0.498c-2.656-1.664-2.709-8.422-2.966-11.233
	c-0.116-1.285,1.671-2.338,1.174-4.694c-2.91-13.792,1.258-20.247,7.85-22.388c4.576-1.854,13.119-5.292,21.087-0.391l1.977,1.833
	l3.2,0.551C66.562,13.273,67.587,16.347,67.587,16.347z"/>
</svg>
